<svg width="49" height="44" viewBox="0 0 49 44" fill="none" xmlns="http://www.w3.org/2000/svg">
<path d="M28.86 3.69H1.85C0.83 3.69 0 2.87 0 1.85C0 0.83 0.83 0 1.85 0H28.87C29.89 0 30.72 0.83 30.72 1.85C30.71 2.87 29.88 3.69 28.86 3.69ZM46.15 13.42H1.85C0.83 13.42 0 12.59 0 11.57C0 10.55 0.83 9.72 1.85 9.72H46.16C47.18 9.72 48.01 10.55 48.01 11.57C48.01 12.59 47.17 13.42 46.15 13.42ZM30.78 23.15H1.85C0.83 23.15 0 22.32 0 21.3C0 20.28 0.83 19.45 1.85 19.45H30.79C31.81 19.45 32.64 20.28 32.64 21.3C32.63 22.32 31.8 23.15 30.78 23.15ZM30.78 43.56H1.85C0.83 43.56 0 42.73 0 41.71C0 40.69 0.83 39.86 1.85 39.86H30.79C31.81 39.86 32.64 40.69 32.64 41.71C32.63 42.73 31.8 43.56 30.78 43.56ZM46.15 33.35H1.85C0.83 33.35 0 32.53 0 31.51C0 30.49 0.83 29.66 1.85 29.66H46.16C47.18 29.66 48.01 30.49 48.01 31.51C48.01 32.53 47.17 33.35 46.15 33.35Z" fill="white"/>
</svg>
